<?xml version="1.0" standalone="no"?><!DOCTYPE svg PUBLIC "-//W3C//DTD SVG 1.1//EN" "http://www.w3.org/Graphics/SVG/1.1/DTD/svg11.dtd"><svg t="1673232396316" class="icon" viewBox="0 0 1024 1024" version="1.1" xmlns="http://www.w3.org/2000/svg" p-id="1292" xmlns:xlink="http://www.w3.org/1999/xlink" width="200" height="200"><path d="M865.645643 482.350954c15.306053 7.653526 22.959579 25.511087 15.306053 43.369647-2.550509 7.653526-10.204035 12.755543-15.306053 15.306053L539.101534 696.645682c-7.653526 5.102018-17.857561 5.102018-25.511087 7.653526V579.294283c17.857561 0 35.715122-5.103017 51.022173-12.755543l237.254307-112.250381 63.778716 28.062595zM865.645643 637.968983c15.306053 7.653526 22.959579 25.511087 15.306053 43.368648-2.550509 7.653526-10.204035 12.755543-15.306053 15.307052L539.101534 852.263711c-7.653526 5.102018-17.857561 5.102018-25.511087 5.102018V732.360804c17.857561 0 35.715122-5.103017 51.022173-12.756543L801.866927 607.35488l63.778716 30.614103z" fill="#018B64" p-id="1293"></path><path d="M865.645643 326.732925c15.306053 7.652527 22.959579 25.511087 15.306053 43.368648-2.550509 7.653526-7.652527 12.755543-15.306053 15.307051l-326.544109 155.61803c-7.653526 2.551508-17.857561 5.103017-25.511087 5.103016V166.011879c10.204035 0 17.857561 2.550509 25.511087 5.102018l326.544109 155.619028z" fill="#2EC076" p-id="1294"></path><path d="M511.038939 732.360804v125.004925c-10.204035 0-17.857561-2.551508-28.062596-5.102018L156.433233 696.644683c-15.307052-7.653526-22.960578-28.062595-15.307052-43.369647 2.551508-7.652527 7.653526-12.755543 15.307052-15.306053l63.777717-30.614103 237.254307 112.249381c17.85856 7.653526 35.716121 12.756542 53.573682 12.756543zM511.038939 574.190267v125.004925c-10.204035 0-17.857561-2.550509-28.062596-7.652527L156.433233 538.475145c-15.307052-7.653526-22.960578-25.512086-15.307052-43.369646 2.551508-7.653526 7.653526-12.755543 15.307052-15.307052l63.777717-30.613105 237.254307 112.249382c17.85856 10.205034 35.716121 15.307052 53.573682 12.755543z" fill="#0FD79E" p-id="1295"></path><path d="M511.038939 166.011879v377.566283c-10.204035 0-17.857561-2.551508-28.062596-5.102018L156.433233 385.408624c-15.307052-7.653526-22.960578-28.062595-15.307052-43.369646 2.551508-7.653526 7.653526-12.755543 15.307052-15.306053l326.54311-153.06752c10.205034-5.103017 20.409069-7.653526 28.062596-7.653526z" fill="#86FFC2" p-id="1296"></path></svg>