<?xml version="1.0" standalone="no"?><!DOCTYPE svg PUBLIC "-//W3C//DTD SVG 1.1//EN" "http://www.w3.org/Graphics/SVG/1.1/DTD/svg11.dtd"><svg t="1673249536044" class="icon" viewBox="0 0 1024 1024" version="1.1" xmlns="http://www.w3.org/2000/svg" p-id="11687" xmlns:xlink="http://www.w3.org/1999/xlink" width="200" height="200"><path d="M672 477.696C748.512 433.408 800 350.656 800 256 800 114.688 685.28 0 544 0 402.72 0 288 114.688 288 256 288 350.656 339.488 433.408 416 477.696L416 576 448 624 416 672 416 736 448 784 416 832 416 944C416 944 467.904 982.912 505.6 1011.2 528.352 1028.256 559.648 1028.256 582.4 1011.2 620.096 982.912 672 944 672 944L672 477.696ZM544 96C579.328 96 608 124.672 608 160 608 195.296 579.328 224 544 224 508.672 224 480 195.296 480 160 480 124.672 508.672 96 544 96" p-id="11688" fill="#12aa9c"></path></svg>